<svg width="122" height="80" viewBox="0 0 122 80" fill="none" xmlns="http://www.w3.org/2000/svg">
<g filter="url(#filter0_d_2078_1427)">
<rect x="20" width="82" height="40" rx="20" fill="white" shape-rendering="crispEdges"/>
<rect x="25" y="5" width="30" height="30" rx="15" fill="#FF9900"/>
<path d="M40 10L42.2451 16.9098H49.5106L43.6327 21.1803L45.8779 28.0902L40 23.8197L34.1221 28.0902L36.3673 21.1803L30.4894 16.9098H37.7549L40 10Z" fill="white"/>
<path d="M67.416 26.16C66.6267 26.16 65.8533 26.048 65.096 25.824C64.3493 25.5893 63.72 25.2693 63.208 24.864L64.088 23.248C64.4933 23.5787 64.984 23.8453 65.56 24.048C66.1467 24.2507 66.7547 24.352 67.384 24.352C68.12 24.352 68.696 24.1973 69.112 23.888C69.5387 23.5787 69.752 23.1627 69.752 22.64C69.752 22.288 69.6613 21.9787 69.48 21.712C69.3093 21.4453 69 21.2427 68.552 21.104C68.1147 20.9653 67.512 20.896 66.744 20.896H64.04L64.616 14.8H71.192V16.544H65.384L66.472 15.552L66.04 20.112L64.952 19.136H67.208C68.3173 19.136 69.208 19.2853 69.88 19.584C70.5627 19.872 71.0587 20.2773 71.368 20.8C71.688 21.312 71.848 21.8987 71.848 22.56C71.848 23.2107 71.688 23.808 71.368 24.352C71.048 24.896 70.5573 25.3333 69.896 25.664C69.2453 25.9947 68.4187 26.16 67.416 26.16ZM74.2958 26.112C73.9331 26.112 73.6238 25.9893 73.3678 25.744C73.1118 25.488 72.9838 25.168 72.9838 24.784C72.9838 24.3787 73.1118 24.0587 73.3678 23.824C73.6238 23.5787 73.9331 23.456 74.2958 23.456C74.6584 23.456 74.9678 23.5787 75.2238 23.824C75.4798 24.0587 75.6078 24.3787 75.6078 24.784C75.6078 25.168 75.4798 25.488 75.2238 25.744C74.9678 25.9893 74.6584 26.112 74.2958 26.112ZM81.4385 26.16C80.5532 26.16 79.7532 25.936 79.0385 25.488C78.3345 25.04 77.7798 24.3893 77.3745 23.536C76.9692 22.672 76.7665 21.6267 76.7665 20.4C76.7665 19.1733 76.9692 18.1333 77.3745 17.28C77.7798 16.416 78.3345 15.76 79.0385 15.312C79.7532 14.864 80.5532 14.64 81.4385 14.64C82.3345 14.64 83.1345 14.864 83.8385 15.312C84.5425 15.76 85.0972 16.416 85.5025 17.28C85.9185 18.1333 86.1265 19.1733 86.1265 20.4C86.1265 21.6267 85.9185 22.672 85.5025 23.536C85.0972 24.3893 84.5425 25.04 83.8385 25.488C83.1345 25.936 82.3345 26.16 81.4385 26.16ZM81.4385 24.352C81.9612 24.352 82.4145 24.2133 82.7985 23.936C83.1825 23.648 83.4812 23.2107 83.6945 22.624C83.9185 22.0373 84.0305 21.296 84.0305 20.4C84.0305 19.4933 83.9185 18.752 83.6945 18.176C83.4812 17.5893 83.1825 17.1573 82.7985 16.88C82.4145 16.592 81.9612 16.448 81.4385 16.448C80.9372 16.448 80.4892 16.592 80.0945 16.88C79.7105 17.1573 79.4065 17.5893 79.1825 18.176C78.9692 18.752 78.8625 19.4933 78.8625 20.4C78.8625 21.296 78.9692 22.0373 79.1825 22.624C79.4065 23.2107 79.7105 23.648 80.0945 23.936C80.4892 24.2133 80.9372 24.352 81.4385 24.352Z" fill="black"/>
</g>
<defs>
<filter id="filter0_d_2078_1427" x="0" y="0" width="122" height="80" filterUnits="userSpaceOnUse" color-interpolation-filters="sRGB">
<feFlood flood-opacity="0" result="BackgroundImageFix"/>
<feColorMatrix in="SourceAlpha" type="matrix" values="0 0 0 0 0 0 0 0 0 0 0 0 0 0 0 0 0 0 127 0" result="hardAlpha"/>
<feOffset dy="20"/>
<feGaussianBlur stdDeviation="10"/>
<feComposite in2="hardAlpha" operator="out"/>
<feColorMatrix type="matrix" values="0 0 0 0 0.48 0 0 0 0 0.35 0 0 0 0 1 0 0 0 0.08 0"/>
<feBlend mode="normal" in2="BackgroundImageFix" result="effect1_dropShadow_2078_1427"/>
<feBlend mode="normal" in="SourceGraphic" in2="effect1_dropShadow_2078_1427" result="shape"/>
</filter>
</defs>
</svg>
