<svg width="92" height="36" viewBox="0 0 92 36" fill="none" xmlns="http://www.w3.org/2000/svg">
<path d="M6.67938 24.16C5.14338 24.16 3.93804 23.728 3.06338 22.864C2.19938 22 1.76738 20.752 1.76738 19.12V12.8H3.84738V19.04C3.84738 20.192 4.09271 21.0293 4.58337 21.552C5.08471 22.0747 5.78871 22.336 6.69538 22.336C7.60204 22.336 8.30071 22.0747 8.79138 21.552C9.28204 21.0293 9.52738 20.192 9.52738 19.04V12.8H11.5754V19.12C11.5754 20.752 11.138 22 10.2634 22.864C9.39938 23.728 8.20471 24.16 6.67938 24.16ZM16.3444 21.36L16.2324 18.896L22.1044 12.8H24.4404L19.5604 17.984L18.4084 19.248L16.3444 21.36ZM14.4884 24V12.8H16.5684V24H14.4884ZM22.2964 24L18.0084 18.896L19.3844 17.376L24.7284 24H22.2964Z" fill="#030522"/>
<g clip-path="url(#clip0_2078_1471)">
<rect width="25" height="35" transform="translate(33 0.5)" fill="white"/>
<path d="M38.1062 22.0592C38.2652 22.1153 38.4329 22.1427 38.6015 22.1401L43.7955 21.9769L44.4692 21.1734C44.4977 21.1395 44.5329 21.1119 44.5727 21.0923C44.6125 21.0728 44.6559 21.0618 44.7002 21.0601L50.3808 20.8334C50.4468 20.8307 50.512 20.8486 50.5674 20.8847C50.6227 20.9207 50.6655 20.9731 50.6897 21.0346C50.7139 21.0961 50.7183 21.1636 50.7024 21.2277C50.6865 21.2918 50.651 21.3494 50.6009 21.3924L50.2856 21.6631L56.6978 21.4014C56.894 21.3934 57.0832 21.3259 57.2401 21.2079C57.3971 21.09 57.5145 20.927 57.5767 20.7408C57.639 20.5546 57.6431 20.3538 57.5886 20.1652C57.5341 19.9765 57.4235 19.8089 57.2716 19.6845C56.5867 19.1256 55.7942 18.7133 54.9434 18.4732C54.0926 18.2331 53.2015 18.1704 52.3255 18.2888L39.0964 19.9018C39.0402 19.9086 38.9832 19.9003 38.9313 19.8778C38.8793 19.8552 38.8344 19.8192 38.801 19.7734L36.7755 16.9942C36.4796 16.5874 36.0877 16.26 35.6347 16.0411C35.1818 15.8222 34.6817 15.7187 34.1791 15.7397L33.3635 15.773L36.4165 20.7229C36.8013 21.3565 37.401 21.8307 38.1062 22.0592Z" fill="#313EF7"/>
<path d="M40.4808 27.3756L47.7397 21.1395L43.1125 21.324L38.5923 26.7157L40.4808 27.3756Z" fill="#313EF7"/>
<path d="M48.8996 18.408L44.5801 14.8557L43.3509 15.1181L46.1742 18.7403L48.8996 18.408Z" fill="#313EF7"/>
</g>
<path d="M67.8087 24V12.8H73.0567C74.4007 12.8 75.4247 13.0667 76.1287 13.6C76.8327 14.1227 77.1847 14.8267 77.1847 15.712C77.1847 16.3093 77.046 16.8213 76.7687 17.248C76.4914 17.664 76.118 17.9893 75.6487 18.224C75.19 18.448 74.6887 18.56 74.1447 18.56L74.4327 17.984C75.062 17.984 75.6274 18.1013 76.1287 18.336C76.63 18.56 77.0247 18.8907 77.3127 19.328C77.6114 19.7653 77.7607 20.3093 77.7607 20.96C77.7607 21.92 77.3927 22.6667 76.6567 23.2C75.9207 23.7333 74.8274 24 73.3767 24H67.8087ZM69.8887 22.368H73.2487C74.0274 22.368 74.6247 22.24 75.0407 21.984C75.4567 21.728 75.6647 21.3173 75.6647 20.752C75.6647 20.1973 75.4567 19.792 75.0407 19.536C74.6247 19.2693 74.0274 19.136 73.2487 19.136H69.7287V17.52H72.8327C73.558 17.52 74.1127 17.392 74.4967 17.136C74.8914 16.88 75.0887 16.496 75.0887 15.984C75.0887 15.4613 74.8914 15.072 74.4967 14.816C74.1127 14.56 73.558 14.432 72.8327 14.432H69.8887V22.368ZM79.9806 24V12.8H84.8766C86.0926 12.8 87.1592 13.0347 88.0766 13.504C88.9939 13.9733 89.7086 14.624 90.2206 15.456C90.7326 16.288 90.9886 17.2693 90.9886 18.4C90.9886 19.52 90.7326 20.5013 90.2206 21.344C89.7086 22.176 88.9939 22.8267 88.0766 23.296C87.1592 23.7653 86.0926 24 84.8766 24H79.9806ZM82.0606 22.24H84.7806C85.6232 22.24 86.3486 22.08 86.9566 21.76C87.5752 21.44 88.0499 20.992 88.3806 20.416C88.7219 19.84 88.8926 19.168 88.8926 18.4C88.8926 17.6213 88.7219 16.9493 88.3806 16.384C88.0499 15.808 87.5752 15.36 86.9566 15.04C86.3486 14.72 85.6232 14.56 84.7806 14.56H82.0606V22.24Z" fill="#030522"/>
<defs>
<clipPath id="clip0_2078_1471">
<rect width="25" height="35" fill="white" transform="translate(33 0.5)"/>
</clipPath>
</defs>
</svg>
