<svg width="356" height="70" viewBox="0 0 356 70" fill="none" xmlns="http://www.w3.org/2000/svg">
<path d="M4 0H0V70H4V0Z" fill="#030522"/>
<path d="M8 0H6V70H8V0Z" fill="#030522"/>
<path d="M14 0H12V70H14V0Z" fill="#030522"/>
<path d="M26 0H22V70H26V0Z" fill="#030522"/>
<path d="M34 0H32V70H34V0Z" fill="#030522"/>
<path d="M42 0H36V70H42V0Z" fill="#030522"/>
<path d="M46 0H44V70H46V0Z" fill="#030522"/>
<path d="M52 0H50V70H52V0Z" fill="#030522"/>
<path d="M58 0H54V70H58V0Z" fill="#030522"/>
<path d="M68 0H66V70H68V0Z" fill="#030522"/>
<path d="M80 0H76V70H80V0Z" fill="#030522"/>
<path d="M86 0H84V70H86V0Z" fill="#030522"/>
<path d="M90 0H88V70H90V0Z" fill="#030522"/>
<path d="M102 0H94V70H102V0Z" fill="#030522"/>
<path d="M108 0H106V70H108V0Z" fill="#030522"/>
<path d="M118 0H110V70H118V0Z" fill="#030522"/>
<path d="M126 0H120V70H126V0Z" fill="#030522"/>
<path d="M130 0H128V70H130V0Z" fill="#030522"/>
<path d="M134 0H132V70H134V0Z" fill="#030522"/>
<path d="M146 0H138V70H146V0Z" fill="#030522"/>
<path d="M152 0H150V70H152V0Z" fill="#030522"/>
<path d="M158 0H154V70H158V0Z" fill="#030522"/>
<path d="M164 0H162V70H164V0Z" fill="#030522"/>
<path d="M168 0H166V70H168V0Z" fill="#030522"/>
<path d="M180 0H176V70H180V0Z" fill="#030522"/>
<path d="M186 0H184V70H186V0Z" fill="#030522"/>
<path d="M190 0H188V70H190V0Z" fill="#030522"/>
<path d="M200 0H198V70H200V0Z" fill="#030522"/>
<path d="M206 0H204V70H206V0Z" fill="#030522"/>
<path d="M212 0H208V70H212V0Z" fill="#030522"/>
<path d="M222 0H220V70H222V0Z" fill="#030522"/>
<path d="M230 0H226V70H230V0Z" fill="#030522"/>
<path d="M240 0H238V70H240V0Z" fill="#030522"/>
<path d="M246 0H242V70H246V0Z" fill="#030522"/>
<path d="M256 0H250V70H256V0Z" fill="#030522"/>
<path d="M262 0H260V70H262V0Z" fill="#030522"/>
<path d="M266 0H264V70H266V0Z" fill="#030522"/>
<path d="M276 0H270V70H276V0Z" fill="#030522"/>
<path d="M282 0H278V70H282V0Z" fill="#030522"/>
<path d="M288 0H286V70H288V0Z" fill="#030522"/>
<path d="M298 0H292V70H298V0Z" fill="#030522"/>
<path d="M304 0H300V70H304V0Z" fill="#030522"/>
<path d="M310 0H308V70H310V0Z" fill="#030522"/>
<path d="M318 0H312V70H318V0Z" fill="#030522"/>
<path d="M328 0H324V70H328V0Z" fill="#030522"/>
<path d="M334 0H330V70H334V0Z" fill="#030522"/>
<path d="M346 0H340V70H346V0Z" fill="#030522"/>
<path d="M350 0H348V70H350V0Z" fill="#030522"/>
<path d="M356 0H352V70H356V0Z" fill="#030522"/>
</svg>
