<svg width="71" height="70" viewBox="0 0 71 70" fill="none" xmlns="http://www.w3.org/2000/svg">
<circle cx="35.1221" cy="35" r="35" fill="#313EF7" fill-opacity="0.05"/>
<g clip-path="url(#clip0_2201_632)">
<path d="M52.278 34.5181C52.1171 34.1888 52.1171 33.8112 52.278 33.4819L53.7699 30.43C54.6005 28.7307 53.9424 26.7053 52.2716 25.8189L49.2709 24.2267C48.9471 24.055 48.7252 23.7493 48.6618 23.3885L48.0749 20.0425C47.7481 18.1795 46.0249 16.9277 44.1524 17.1926L40.789 17.6684C40.4259 17.7196 40.0669 17.6029 39.8036 17.3481L37.3621 14.9863C36.0027 13.6711 33.873 13.671 32.5136 14.9863L30.0721 17.3484C29.8086 17.6032 29.4496 17.7197 29.0867 17.6686L25.7232 17.1928C23.8501 16.9277 22.1275 18.1798 21.8007 20.0427L21.2138 23.3886C21.1505 23.7495 20.9285 24.055 20.6049 24.2268L17.6041 25.819C15.9333 26.7054 15.2752 28.731 16.1058 30.4302L17.5976 33.4821C17.7585 33.8114 17.7585 34.189 17.5976 34.5183L16.1057 37.5701C15.2751 39.2694 15.9332 41.2948 17.604 42.1813L20.6048 43.7734C20.9285 43.9452 21.1505 44.2508 21.2138 44.6116L21.8007 47.9576C22.0982 49.6536 23.5524 50.8429 25.2237 50.8428C25.3883 50.8428 25.5554 50.8312 25.7233 50.8075L29.0868 50.3317C29.4495 50.2802 29.8087 50.3972 30.0721 50.6519L32.5136 53.0138C33.1935 53.6714 34.0655 54.0002 34.9378 54.0001C35.8099 54 36.6825 53.6713 37.362 53.0138L39.8036 50.6519C40.067 50.3972 40.4261 50.2808 40.789 50.3317L44.1524 50.8075C46.0257 51.0725 47.7481 49.8205 48.0749 47.9576L48.6619 44.6117C48.7252 44.2508 48.9472 43.9452 49.2709 43.7734L52.2716 42.1813C53.9424 41.2949 54.6005 39.2693 53.7699 37.57L52.278 34.5181ZM51.1903 40.1432L48.1895 41.7354C47.2328 42.2431 46.5767 43.1461 46.3895 44.213L45.8027 47.5589C45.6921 48.1892 45.1094 48.6126 44.4756 48.5231L41.1121 48.0473C40.0394 47.8954 38.978 48.2406 38.1995 48.9936L35.758 51.3554C35.2981 51.8003 34.5776 51.8003 34.1176 51.3554L31.6761 48.9936C31.0182 48.3571 30.158 48.0122 29.26 48.0122C29.0955 48.0122 28.9296 48.0237 28.7636 48.0472L25.4001 48.523C24.7668 48.6126 24.1836 48.1891 24.073 47.5588L23.486 44.2128C23.2988 43.1459 22.6427 42.2429 21.6859 41.7353L18.6852 40.1432C18.1199 39.8432 17.8972 39.158 18.1782 38.5831L19.6701 35.5311C20.1457 34.558 20.1457 33.4419 19.6701 32.4688L18.1782 29.4169C17.8972 28.842 18.1199 28.1567 18.6852 27.8568L21.6859 26.2646C22.6427 25.7569 23.2988 24.8539 23.4859 23.7871L24.0728 20.4412C24.1834 19.8109 24.7661 19.3874 25.3999 19.4769L28.7634 19.9527C29.8357 20.1045 30.8975 19.7594 31.676 19.0064L34.1175 16.6445C34.5774 16.1997 35.2979 16.1997 35.7579 16.6445L38.1994 19.0064C38.9779 19.7595 40.0395 20.1045 41.1119 19.9527L44.4754 19.4769C45.1088 19.3873 45.692 19.8109 45.8025 20.4412L46.3894 23.7872C46.5766 24.854 47.2327 25.7571 48.1895 26.2646L51.1902 27.8568C51.7555 28.1567 51.9782 28.842 51.6972 29.4169L50.2053 32.4687C49.7297 33.4418 49.7297 34.558 50.2053 35.5311L51.6972 38.5829C51.9783 39.158 51.7556 39.8433 51.1903 40.1432Z" fill="black"/>
<path d="M43.3676 25.5712C42.9172 25.1208 42.1868 25.1208 41.7363 25.5712L26.5107 40.7969C26.0602 41.2474 26.0602 41.9778 26.5107 42.4283C26.7359 42.6535 27.0312 42.7661 27.3263 42.7661C27.6215 42.7661 27.9168 42.6536 28.1419 42.4283L43.3676 27.2026C43.8182 26.7521 43.8182 26.0218 43.3676 25.5712Z" fill="black"/>
<path d="M30.3243 23.6184C27.9921 23.6184 26.0947 25.5158 26.0947 27.848C26.0947 30.1801 27.9921 32.0775 30.3243 32.0775C32.6565 32.0775 34.5539 30.1801 34.5539 27.848C34.5539 25.5158 32.6565 23.6184 30.3243 23.6184ZM30.3243 29.7705C29.2642 29.7705 28.4018 28.908 28.4018 27.8479C28.4018 26.7878 29.2642 25.9254 30.3243 25.9254C31.3844 25.9254 32.2469 26.7878 32.2469 27.8479C32.2468 28.908 31.3844 29.7705 30.3243 29.7705Z" fill="black"/>
<path d="M39.5528 35.9225C37.2207 35.9225 35.3232 37.8199 35.3232 40.1521C35.3232 42.4842 37.2207 44.3817 39.5528 44.3817C41.885 44.3817 43.7824 42.4842 43.7824 40.1521C43.7824 37.8199 41.885 35.9225 39.5528 35.9225ZM39.5528 42.0746C38.4928 42.0746 37.6303 41.2121 37.6303 40.1521C37.6303 39.092 38.4927 38.2296 39.5528 38.2296C40.6129 38.2296 41.4753 39.092 41.4753 40.1521C41.4753 41.2121 40.6129 42.0746 39.5528 42.0746Z" fill="black"/>
</g>
<defs>
<clipPath id="clip0_2201_632">
<rect width="40" height="40" fill="white" transform="translate(14.9385 14)"/>
</clipPath>
</defs>
</svg>
