<svg width="70" height="70" viewBox="0 0 70 70" fill="none" xmlns="http://www.w3.org/2000/svg">
<circle cx="35" cy="35" r="35" fill="#313EF7" fill-opacity="0.05"/>
<g clip-path="url(#clip0_2201_631)">
<path d="M49.5742 48.1516C49.5233 48.1516 49.4717 48.1461 49.421 48.1361C49.3716 48.1257 49.3224 48.111 49.2748 48.0915C49.2278 48.072 49.1827 48.0479 49.1406 48.0195C49.0975 47.9908 49.0576 47.9588 49.0215 47.9218C48.9858 47.8861 48.9529 47.8461 48.9248 47.804C48.8958 47.761 48.8723 47.7155 48.8528 47.6688C48.8333 47.6218 48.8177 47.5727 48.8076 47.5227C48.7975 47.472 48.793 47.421 48.793 47.3695C48.793 47.3188 48.7975 47.2672 48.8076 47.2172C48.8177 47.1671 48.8326 47.118 48.8522 47.071C48.8717 47.0234 48.8958 46.9782 48.9239 46.9361C48.9529 46.8931 48.9858 46.8531 49.0215 46.8171C49.0576 46.7814 49.0975 46.7484 49.1406 46.7204C49.1827 46.6923 49.2278 46.6679 49.2748 46.6483C49.3224 46.6288 49.3716 46.6142 49.421 46.6041C49.5226 46.5836 49.6255 46.5836 49.7265 46.6041C49.7766 46.6142 49.8257 46.6288 49.8724 46.6483C49.92 46.6679 49.9655 46.6923 50.0076 46.7204C50.0506 46.7484 50.0903 46.7814 50.1263 46.8171C50.1623 46.8531 50.1953 46.8931 50.2233 46.9361C50.2514 46.9782 50.2755 47.0234 50.295 47.071C50.3146 47.118 50.3295 47.1671 50.3396 47.2172C50.3497 47.2672 50.3552 47.3188 50.3552 47.3695C50.3552 47.421 50.3497 47.472 50.3396 47.5227C50.3295 47.5727 50.3146 47.6218 50.295 47.6688C50.2755 47.7155 50.2514 47.761 50.2233 47.804C50.1953 47.8461 50.1623 47.8861 50.1263 47.9218C50.0903 47.9588 50.0506 47.9908 50.0076 48.0195C49.9655 48.0476 49.92 48.072 49.8724 48.0915C49.8257 48.111 49.7766 48.126 49.7265 48.1361C49.6765 48.1461 49.6249 48.1516 49.5742 48.1516Z" fill="#030522"/>
<path d="M38.6782 38.9951H36.5087C36.2746 38.9951 36.0527 38.8901 35.9044 38.7089C35.7561 38.5279 35.6966 38.2896 35.7427 38.0601L36.473 34.419H33.1429L32.0583 35.3226C31.9179 35.4398 31.7409 35.5036 31.5584 35.5036H29.3886C29.1295 35.5036 28.8872 35.3751 28.7419 35.1606C28.5964 34.9457 28.5671 34.6732 28.6632 34.4324L29.6321 32.0106L28.6632 29.5887C28.5671 29.3479 28.5964 29.0754 28.7419 28.8605C28.8872 28.646 29.1295 28.5172 29.3886 28.5172H31.5584C31.7409 28.5172 31.9179 28.5813 32.0583 28.6985L33.1429 29.6021H36.473L35.7427 25.9611C35.6966 25.7313 35.7561 25.4932 35.9044 25.3123C36.0527 25.131 36.2746 25.026 36.5087 25.026H38.6782C38.9492 25.026 39.2009 25.1664 39.3431 25.3971L41.9377 29.6021H44.6446C45.9728 29.6021 47.0531 30.6824 47.0531 32.0106C47.0531 33.3387 45.9728 34.419 44.6446 34.419H41.9377L39.3431 38.624C39.2009 38.8547 38.9492 38.9951 38.6782 38.9951ZM37.4623 37.4326H38.2424L40.837 33.2276C40.9792 32.9969 41.231 32.8565 41.5019 32.8565H44.6446C45.1113 32.8565 45.4906 32.4772 45.4906 32.0106C45.4906 31.5439 45.1113 31.1646 44.6446 31.1646H41.5019C41.231 31.1646 40.9795 31.0242 40.837 30.7935L38.2424 26.5885H37.4623L38.1926 30.2296C38.2387 30.4594 38.1792 30.6974 38.0309 30.8787C37.8826 31.0596 37.6607 31.1646 37.4266 31.1646H32.8603C32.6775 31.1646 32.5005 31.1005 32.3601 30.9836L31.2755 30.0797H30.5428L31.1989 31.7203C31.2734 31.9068 31.2734 32.1146 31.1989 32.3008L30.5428 33.9414H31.2755L32.3601 33.0378C32.5005 32.9206 32.6775 32.8565 32.8603 32.8565H37.4266C37.6607 32.8565 37.8826 32.9618 38.0309 33.1428C38.1792 33.3237 38.2387 33.5621 38.1926 33.7916L37.4623 37.4326Z" fill="#030522"/>
<path d="M46.1281 47.7225H29.5293C29.0981 47.7225 28.748 47.3727 28.748 46.9412V42.1368C28.748 41.7053 29.0981 41.3556 29.5293 41.3556H46.1281C46.5596 41.3556 46.9094 41.7053 46.9094 42.1368V46.9412C46.9094 47.3727 46.5596 47.7225 46.1281 47.7225ZM30.3105 46.16H45.3469V42.9181H30.3105V46.16Z" fill="#030522"/>
<path d="M53.4835 15.5634H50.3564V14.7812C50.3564 14.3497 50.0063 14 49.5751 14H24.3939C22.7056 14 21.332 15.3733 21.332 17.0615V50.9382C21.332 52.6264 22.7053 54 24.3936 54H53.4835C53.915 54 54.2648 53.6503 54.2648 53.2188V16.3447C54.2648 15.9131 53.915 15.5634 53.4835 15.5634ZM48.7936 15.5625V24.9662L46.592 23.9283C46.3812 23.8288 46.137 23.8288 45.9261 23.928L43.7185 24.9671V15.5625H48.7936ZM52.7023 52.4375H26.8652V20.7432C26.8652 20.3116 26.5154 19.9619 26.0839 19.9619C25.6524 19.9619 25.3027 20.3116 25.3027 20.7432V52.4375H24.3939C23.5671 52.4375 22.8945 51.7649 22.8945 50.9382V17.0615C22.8945 16.2351 23.5671 15.5625 24.3939 15.5625H42.156V26.1985C42.156 26.4658 42.293 26.7145 42.5189 26.858C42.6458 26.9385 42.7914 26.9797 42.9376 26.9797C43.0508 26.9797 43.1643 26.955 43.2702 26.9053L46.2585 25.4984L48.7936 26.6938V43.5807C48.7936 44.0122 49.1436 44.3619 49.5748 44.3619C50.0063 44.3619 50.3561 44.0122 50.3561 43.5807V17.1259H52.7023V52.4375Z" fill="#030522"/>
</g>
<defs>
<clipPath id="clip0_2201_631">
<rect width="40" height="40" fill="white" transform="translate(17.8164 14)"/>
</clipPath>
</defs>
</svg>
