<svg width="41" height="40" viewBox="0 0 41 40" fill="none" xmlns="http://www.w3.org/2000/svg">
<circle cx="21.3799" cy="21" r="35" fill="#313EF7" fill-opacity="0.05"/>
<path d="M38.7666 16.6531C37.968 16.1596 37.079 16.0591 36.2949 16.1363V15.3125C36.2949 6.8907 29.4032 0 20.9824 0C12.5606 0 5.66992 6.89172 5.66992 15.3125V16.1363C4.88586 16.0591 3.9968 16.1596 3.19828 16.6531C1.72789 17.5619 0.982422 19.4765 0.982422 22.3438C0.982422 25.2158 1.7293 27.1405 3.20234 28.0647C3.93406 28.5238 4.78859 28.6832 5.66992 28.6074V29.4531C5.66992 30.1003 6.19461 30.625 6.8418 30.625H11.5293C12.1765 30.625 12.7012 30.1003 12.7012 29.4531V15.3125C12.7012 14.6653 12.1765 14.1406 11.5293 14.1406H8.06719C8.66156 7.5368 14.2265 2.34375 20.9824 2.34375C27.7384 2.34375 33.3033 7.5368 33.8977 14.1406H30.4355C29.7884 14.1406 29.2637 14.6653 29.2637 15.3125V29.4531C29.2637 30.1003 29.7884 30.625 30.4355 30.625H33.9512V31.7969C33.9512 33.7354 32.3741 35.3125 30.4355 35.3125H26.6402C26.1565 33.9486 24.8539 32.9688 23.3262 32.9688H20.9824C19.0439 32.9688 17.4668 34.5459 17.4668 36.4844C17.4668 38.4229 19.0439 40 20.9824 40H23.3262C24.8539 40 26.1565 39.0202 26.6402 37.6562H30.4355C33.6664 37.6562 36.2949 35.0277 36.2949 31.7969C36.2949 30.3695 36.2949 29.5337 36.2949 28.6073C37.1763 28.6831 38.0309 28.5236 38.7625 28.0646C40.2355 27.1405 40.9824 25.2158 40.9824 22.3438C40.9824 19.4765 40.237 17.5619 38.7666 16.6531ZM5.66992 26.2485C5.29602 26.3136 4.82867 26.3181 4.44789 26.0792C3.72453 25.6255 3.32617 24.2988 3.32617 22.3438C3.32617 20.4074 3.71563 19.0962 4.42273 18.6516C4.80508 18.4112 5.2868 18.4284 5.66992 18.504V26.2485ZM10.3574 16.4844V28.2812H8.01367V16.4844H10.3574ZM23.3262 37.6562H20.9824C20.3363 37.6562 19.8105 37.1305 19.8105 36.4844C19.8105 35.8382 20.3363 35.3125 20.9824 35.3125H23.3262C23.9723 35.3125 24.498 35.8382 24.498 36.4844C24.498 37.1305 23.9723 37.6562 23.3262 37.6562ZM33.9512 28.2812H31.6074V16.4844H33.9512V28.2812ZM37.5253 26.074C37.1466 26.3158 36.6741 26.3111 36.2949 26.2454V18.5041C36.678 18.4284 37.1597 18.4113 37.5421 18.6517C38.2492 19.0962 38.6387 20.4074 38.6387 22.3438C38.6387 24.2909 38.2432 25.6156 37.5253 26.074Z" fill="#030522"/>
</svg>
