<svg width="96" height="97" viewBox="0 0 96 97" fill="none" xmlns="http://www.w3.org/2000/svg">
<g filter="url(#filter0_d_2078_7465)">
<ellipse cx="48" cy="42.1104" rx="21" ry="20.9229" fill="white"/>
</g>
<path d="M39.9238 35.9321C39.9238 35.3902 40.1148 34.9431 40.4969 34.5909C40.8789 34.2386 41.3755 34.0625 41.9867 34.0625C42.587 34.0625 43.0727 34.2359 43.4438 34.5827C43.8258 34.9404 44.0169 35.4064 44.0169 35.9808C44.0169 36.5011 43.8313 36.9346 43.4602 37.2814C43.0782 37.6391 42.5761 37.8179 41.954 37.8179H41.9376C41.3373 37.8179 40.8516 37.6391 40.4805 37.2814C40.1094 36.9237 39.9238 36.474 39.9238 35.9321ZM40.1367 50.157V39.2973H43.7713V50.157H40.1367ZM45.7851 50.157H49.4197V44.0931C49.4197 43.7138 49.4633 43.4211 49.5506 43.2152C49.7034 42.8467 49.9354 42.5351 50.2465 42.2804C50.5575 42.0258 50.9477 41.8984 51.4171 41.8984C52.6395 41.8984 53.2508 42.7167 53.2508 44.3532V50.157H56.8854V43.9305C56.8854 42.3265 56.5034 41.1099 55.7393 40.2808C54.9753 39.4517 53.9657 39.0372 52.7105 39.0372C51.3025 39.0372 50.2055 39.6387 49.4197 40.8417V40.8742H49.4033L49.4197 40.8417V39.2973H45.7851C45.8069 39.6441 45.8178 40.7225 45.8178 42.5324C45.8178 44.3424 45.8069 46.8839 45.7851 50.157Z" fill="#17181C"/>
<defs>
<filter id="filter0_d_2078_7465" x="0" y="0.1875" width="96" height="95.8457" filterUnits="userSpaceOnUse" color-interpolation-filters="sRGB">
<feFlood flood-opacity="0" result="BackgroundImageFix"/>
<feColorMatrix in="SourceAlpha" type="matrix" values="0 0 0 0 0 0 0 0 0 0 0 0 0 0 0 0 0 0 127 0" result="hardAlpha"/>
<feOffset dy="6"/>
<feGaussianBlur stdDeviation="13.5"/>
<feComposite in2="hardAlpha" operator="out"/>
<feColorMatrix type="matrix" values="0 0 0 0 0.192031 0 0 0 0 0.192031 0 0 0 0 0.192031 0 0 0 0.17 0"/>
<feBlend mode="normal" in2="BackgroundImageFix" result="effect1_dropShadow_2078_7465"/>
<feBlend mode="normal" in="SourceGraphic" in2="effect1_dropShadow_2078_7465" result="shape"/>
</filter>
</defs>
</svg>
