<svg width="71" height="70" viewBox="0 0 71 70" fill="none" xmlns="http://www.w3.org/2000/svg">
<path d="M48.5003 43.2667C49.0523 43.2667 49.5003 42.8187 49.5003 42.2667V33.5467C49.499 32.48 48.6336 31.6147 47.567 31.6134H45.315V24.8C45.3096 19.0214 40.627 14.3387 34.8483 14.3334C29.0696 14.3387 24.387 19.0214 24.3816 24.8V31.6067H22.1296C21.063 31.608 20.1976 32.4734 20.1963 33.54V48.792C20.199 51.4827 22.3803 53.664 25.071 53.6667H44.6256C47.3163 53.664 49.4976 51.4827 49.5003 48.792C49.5003 48.24 49.0523 47.792 48.5003 47.792C47.9483 47.792 47.5003 48.24 47.5003 48.792C47.4976 50.3787 46.2123 51.664 44.6256 51.6667H25.071C23.4843 51.664 22.199 50.3787 22.1963 48.792L22.1296 33.6067H25.3816C25.9336 33.6067 26.3816 33.1587 26.3816 32.6067V24.8C26.771 13.5987 42.9256 13.5974 43.315 24.8V31.6067H32.1816C31.6296 31.6067 31.1816 32.0547 31.1816 32.6067C31.1816 33.1587 31.6296 33.6067 32.1816 33.6067C34.7376 33.5934 45.1723 33.556 47.5003 33.54V42.2667C47.5003 42.8187 47.9483 43.2667 48.5003 43.2667Z" fill="#030522"/>
<path d="M32.6436 42.6358C32.6929 45.5345 37.0049 45.5345 37.0542 42.6358C37.0049 39.7371 32.6929 39.7371 32.6436 42.6358Z" fill="#030522"/>
<circle cx="35.2461" cy="35" r="35" fill="#313EF7" fill-opacity="0.05"/>
</svg>
