<svg width="177" height="80" viewBox="0 0 177 80" fill="none" xmlns="http://www.w3.org/2000/svg">
<g filter="url(#filter0_d_2078_1433)">
<rect x="20" width="137" height="40" rx="20" fill="white" shape-rendering="crispEdges"/>
<rect x="25" y="5" width="30" height="30" rx="15" fill="#313EF7"/>
<path d="M40.0007 20C40.459 20 40.8515 19.8367 41.1782 19.51C41.5043 19.1839 41.6673 18.7917 41.6673 18.3334C41.6673 17.875 41.5043 17.4825 41.1782 17.1559C40.8515 16.8297 40.459 16.6667 40.0007 16.6667C39.5423 16.6667 39.1501 16.8297 38.824 17.1559C38.4973 17.4825 38.334 17.875 38.334 18.3334C38.334 18.7917 38.4973 19.1839 38.824 19.51C39.1501 19.8367 39.5423 20 40.0007 20ZM40.0007 28.3334C37.7645 26.4306 36.0945 24.6631 34.9907 23.0309C33.8862 21.3992 33.334 19.8889 33.334 18.5C33.334 16.4167 34.0043 14.757 35.3448 13.5209C36.6848 12.2847 38.2368 11.6667 40.0007 11.6667C41.7645 11.6667 43.3165 12.2847 44.6565 13.5209C45.997 14.757 46.6673 16.4167 46.6673 18.5C46.6673 19.8889 46.1154 21.3992 45.0115 23.0309C43.907 24.6631 42.2368 26.4306 40.0007 28.3334Z" fill="white"/>
<path d="M64.504 26V14.8H66.216L73.24 23.424H72.392V14.8H74.456V26H72.744L65.72 17.376H66.568V26H64.504ZM81.2811 26.112C80.3318 26.112 79.4998 25.9253 78.7851 25.552C78.0811 25.168 77.5318 24.6453 77.1371 23.984C76.7531 23.3227 76.5611 22.5707 76.5611 21.728C76.5611 20.8747 76.7478 20.1227 77.1211 19.472C77.5051 18.8107 78.0278 18.2933 78.6891 17.92C79.3611 17.5467 80.1238 17.36 80.9771 17.36C81.8091 17.36 82.5505 17.5413 83.2011 17.904C83.8518 18.2667 84.3638 18.7787 84.7371 19.44C85.1105 20.1013 85.2971 20.88 85.2971 21.776C85.2971 21.8613 85.2918 21.9573 85.2811 22.064C85.2811 22.1707 85.2758 22.272 85.2651 22.368H78.1451V21.04H84.2091L83.4251 21.456C83.4358 20.9653 83.3345 20.5333 83.1211 20.16C82.9078 19.7867 82.6145 19.4933 82.2411 19.28C81.8785 19.0667 81.4571 18.96 80.9771 18.96C80.4865 18.96 80.0545 19.0667 79.6811 19.28C79.3185 19.4933 79.0305 19.792 78.8171 20.176C78.6145 20.5493 78.5131 20.992 78.5131 21.504V21.824C78.5131 22.336 78.6305 22.7893 78.8651 23.184C79.0998 23.5787 79.4305 23.8827 79.8571 24.096C80.2838 24.3093 80.7745 24.416 81.3291 24.416C81.8091 24.416 82.2411 24.3413 82.6251 24.192C83.0091 24.0427 83.3505 23.808 83.6491 23.488L84.7211 24.72C84.3371 25.168 83.8518 25.5147 83.2651 25.76C82.6891 25.9947 82.0278 26.112 81.2811 26.112ZM88.95 26L85.814 17.456H87.702L90.39 24.992H89.494L92.31 17.456H93.99L96.726 24.992H95.846L98.614 17.456H100.39L97.238 26H95.318L92.822 19.328H93.414L90.87 26H88.95ZM109.131 26V21.568L109.595 22.848L104.731 14.8H106.955L110.859 21.28H109.611L113.547 14.8H115.595L110.731 22.848L111.211 21.568V26H109.131ZM119.652 26.112C118.777 26.112 117.999 25.9253 117.316 25.552C116.633 25.168 116.095 24.6453 115.7 23.984C115.305 23.3227 115.108 22.5707 115.108 21.728C115.108 20.8747 115.305 20.1227 115.7 19.472C116.095 18.8107 116.633 18.2933 117.316 17.92C117.999 17.5467 118.777 17.36 119.652 17.36C120.537 17.36 121.321 17.5467 122.004 17.92C122.697 18.2933 123.236 18.8053 123.62 19.456C124.015 20.1067 124.212 20.864 124.212 21.728C124.212 22.5707 124.015 23.3227 123.62 23.984C123.236 24.6453 122.697 25.168 122.004 25.552C121.321 25.9253 120.537 26.112 119.652 26.112ZM119.652 24.4C120.143 24.4 120.58 24.2933 120.964 24.08C121.348 23.8667 121.647 23.5573 121.86 23.152C122.084 22.7467 122.196 22.272 122.196 21.728C122.196 21.1733 122.084 20.6987 121.86 20.304C121.647 19.8987 121.348 19.5893 120.964 19.376C120.58 19.1627 120.148 19.056 119.668 19.056C119.177 19.056 118.74 19.1627 118.356 19.376C117.983 19.5893 117.684 19.8987 117.46 20.304C117.236 20.6987 117.124 21.1733 117.124 21.728C117.124 22.272 117.236 22.7467 117.46 23.152C117.684 23.5573 117.983 23.8667 118.356 24.08C118.74 24.2933 119.172 24.4 119.652 24.4ZM126.125 26V17.456H128.029V19.808L127.805 19.12C128.061 18.544 128.461 18.1067 129.005 17.808C129.559 17.5093 130.247 17.36 131.069 17.36V19.264C130.983 19.2427 130.903 19.232 130.829 19.232C130.754 19.2213 130.679 19.216 130.605 19.216C129.847 19.216 129.245 19.44 128.797 19.888C128.349 20.3253 128.125 20.9813 128.125 21.856V26H126.125ZM134.397 24.096L134.445 21.584L138.909 17.456H141.309L137.517 21.264L136.461 22.144L134.397 24.096ZM132.765 26V14.128H134.765V26H132.765ZM139.213 26L136.093 22.144L137.357 20.544L141.645 26H139.213Z" fill="black"/>
</g>
<defs>
<filter id="filter0_d_2078_1433" x="0" y="0" width="177" height="80" filterUnits="userSpaceOnUse" color-interpolation-filters="sRGB">
<feFlood flood-opacity="0" result="BackgroundImageFix"/>
<feColorMatrix in="SourceAlpha" type="matrix" values="0 0 0 0 0 0 0 0 0 0 0 0 0 0 0 0 0 0 127 0" result="hardAlpha"/>
<feOffset dy="20"/>
<feGaussianBlur stdDeviation="10"/>
<feComposite in2="hardAlpha" operator="out"/>
<feColorMatrix type="matrix" values="0 0 0 0 0.48 0 0 0 0 0.35 0 0 0 0 1 0 0 0 0.08 0"/>
<feBlend mode="normal" in2="BackgroundImageFix" result="effect1_dropShadow_2078_1433"/>
<feBlend mode="normal" in="SourceGraphic" in2="effect1_dropShadow_2078_1433" result="shape"/>
</filter>
</defs>
</svg>
